<svg width="57" height="57" viewBox="0 0 57 57" fill="none" xmlns="http://www.w3.org/2000/svg">
<path d="M28.5 36.1C26.9969 36.1 25.5275 35.6543 24.2777 34.8192C23.0279 33.9841 22.0537 32.7971 21.4785 31.4084C20.9033 30.0197 20.7528 28.4916 21.046 27.0173C21.3393 25.5431 22.0631 24.1889 23.126 23.126C24.1889 22.0631 25.5431 21.3393 27.0173 21.046C28.4916 20.7528 30.0197 20.9033 31.4084 21.4785C32.7971 22.0537 33.9841 23.0279 34.8192 24.2777C35.6543 25.5275 36.1 26.9969 36.1 28.5C36.0975 30.5149 35.296 32.4465 33.8712 33.8712C32.4465 35.296 30.5149 36.0975 28.5 36.1ZM28.5 24.7C27.7484 24.7 27.0137 24.9229 26.3888 25.3404C25.7639 25.758 25.2769 26.3514 24.9893 27.0458C24.7016 27.7402 24.6264 28.5042 24.773 29.2413C24.9196 29.9785 25.2816 30.6556 25.813 31.187C26.3444 31.7184 27.0215 32.0804 27.7587 32.227C28.4958 32.3736 29.2598 32.2984 29.9542 32.0107C30.6486 31.7231 31.242 31.2361 31.6596 30.6112C32.0771 29.9863 32.3 29.2516 32.3 28.5C32.299 27.4925 31.8983 26.5265 31.1859 25.8141C30.4735 25.1017 29.5075 24.701 28.5 24.7ZM7.6 36.1C6.09687 36.1 4.62748 35.6543 3.37767 34.8192C2.12786 33.9841 1.15374 32.7971 0.578519 31.4084C0.00329294 30.0197 -0.147212 28.4916 0.146035 27.0173C0.439283 25.5431 1.16311 24.1889 2.22599 23.126C3.28887 22.0631 4.64306 21.3393 6.11732 21.046C7.59157 20.7528 9.11968 20.9033 10.5084 21.4785C11.8971 22.0537 13.0841 23.0279 13.9192 24.2777C14.7543 25.5275 15.2 26.9969 15.2 28.5C15.1975 30.5149 14.396 32.4465 12.9712 33.8712C11.5465 35.296 9.61488 36.0975 7.6 36.1ZM7.6 24.7C6.84843 24.7 6.11374 24.9229 5.48884 25.3404C4.86393 25.758 4.37687 26.3514 4.08926 27.0458C3.80165 27.7402 3.7264 28.5042 3.87302 29.2413C4.01964 29.9785 4.38156 30.6556 4.913 31.187C5.44444 31.7184 6.12153 32.0804 6.85866 32.227C7.59579 32.3736 8.35984 32.2984 9.0542 32.0107C9.74856 31.7231 10.342 31.2361 10.7596 30.6112C11.1771 29.9863 11.4 29.2516 11.4 28.5C11.399 27.4925 10.9983 26.5265 10.2859 25.8141C9.57348 25.1017 8.60752 24.701 7.6 24.7ZM17.1 57C15.5969 57 14.1275 56.5543 12.8777 55.7192C11.6279 54.8841 10.6537 53.6971 10.0785 52.3084C9.50329 50.9197 9.35279 49.3916 9.64604 47.9173C9.93928 46.4431 10.6631 45.0889 11.726 44.026C12.7889 42.9631 14.1431 42.2393 15.6173 41.946C17.0916 41.6528 18.6197 41.8033 20.0084 42.3785C21.3971 42.9537 22.5841 43.9279 23.4192 45.1777C24.2543 46.4275 24.7 47.8969 24.7 49.4C24.6975 51.4149 23.896 53.3465 22.4712 54.7712C21.0465 56.196 19.1149 56.9975 17.1 57ZM17.1 45.6C16.3484 45.6 15.6137 45.8229 14.9888 46.2404C14.3639 46.658 13.8769 47.2514 13.5893 47.9458C13.3016 48.6402 13.2264 49.4042 13.373 50.1413C13.5196 50.8785 13.8816 51.5556 14.413 52.087C14.9444 52.6184 15.6215 52.9804 16.3587 53.127C17.0958 53.2736 17.8598 53.1984 18.5542 52.9107C19.2486 52.6231 19.842 52.1361 20.2596 51.5112C20.6771 50.8863 20.9 50.1516 20.9 49.4C20.899 48.3925 20.4983 47.4265 19.7859 46.7141C19.0735 46.0017 18.1075 45.601 17.1 45.6ZM39.9 57C38.3969 57 36.9275 56.5543 35.6777 55.7192C34.4279 54.8841 33.4537 53.6971 32.8785 52.3084C32.3033 50.9197 32.1528 49.3916 32.446 47.9173C32.7393 46.4431 33.4631 45.0889 34.526 44.026C35.5889 42.9631 36.9431 42.2393 38.4173 41.946C39.8916 41.6528 41.4197 41.8033 42.8084 42.3785C44.1971 42.9537 45.3841 43.9279 46.2192 45.1777C47.0543 46.4275 47.5 47.8969 47.5 49.4C47.4975 51.4149 46.696 53.3465 45.2712 54.7712C43.8465 56.196 41.9149 56.9975 39.9 57ZM39.9 45.6C39.1484 45.6 38.4137 45.8229 37.7888 46.2404C37.1639 46.658 36.6769 47.2514 36.3893 47.9458C36.1016 48.6402 36.0264 49.4042 36.173 50.1413C36.3196 50.8785 36.6816 51.5556 37.213 52.087C37.7444 52.6184 38.4215 52.9804 39.1587 53.127C39.8958 53.2736 40.6598 53.1984 41.3542 52.9107C42.0486 52.6231 42.642 52.1361 43.0596 51.5112C43.4771 50.8863 43.7 50.1516 43.7 49.4C43.699 48.3925 43.2983 47.4265 42.5859 46.7141C41.8735 46.0017 40.9075 45.601 39.9 45.6ZM49.4 36.1C47.8969 36.1 46.4275 35.6543 45.1777 34.8192C43.9279 33.9841 42.9537 32.7971 42.3785 31.4084C41.8033 30.0197 41.6528 28.4916 41.946 27.0173C42.2393 25.5431 42.9631 24.1889 44.026 23.126C45.0889 22.0631 46.4431 21.3393 47.9173 21.046C49.3916 20.7528 50.9197 20.9033 52.3084 21.4785C53.6971 22.0537 54.8841 23.0279 55.7192 24.2777C56.5543 25.5275 57 26.9969 57 28.5C56.9975 30.5149 56.196 32.4465 54.7712 33.8712C53.3465 35.296 51.4149 36.0975 49.4 36.1ZM49.4 24.7C48.6484 24.7 47.9137 24.9229 47.2888 25.3404C46.6639 25.758 46.1769 26.3514 45.8893 27.0458C45.6016 27.7402 45.5264 28.5042 45.673 29.2413C45.8196 29.9785 46.1816 30.6556 46.713 31.187C47.2444 31.7184 47.9215 32.0804 48.6587 32.227C49.3958 32.3736 50.1598 32.2984 50.8542 32.0107C51.5486 31.7231 52.142 31.2361 52.5596 30.6112C52.9771 29.9863 53.2 29.2516 53.2 28.5C53.199 27.4925 52.7983 26.5265 52.0859 25.8141C51.3735 25.1017 50.4075 24.701 49.4 24.7ZM39.9 15.2C38.3969 15.2 36.9275 14.7543 35.6777 13.9192C34.4279 13.0841 33.4537 11.8971 32.8785 10.5084C32.3033 9.11968 32.1528 7.59157 32.446 6.11732C32.7393 4.64306 33.4631 3.28887 34.526 2.22599C35.5889 1.16311 36.9431 0.439283 38.4173 0.146035C39.8916 -0.147212 41.4197 0.00329294 42.8084 0.578519C44.1971 1.15374 45.3841 2.12786 46.2192 3.37767C47.0543 4.62748 47.5 6.09687 47.5 7.6C47.4975 9.61488 46.696 11.5465 45.2712 12.9712C43.8465 14.396 41.9149 15.1975 39.9 15.2ZM39.9 3.8C39.1484 3.8 38.4137 4.02287 37.7888 4.44042C37.1639 4.85797 36.6769 5.45145 36.3893 6.14581C36.1016 6.84017 36.0264 7.60422 36.173 8.34135C36.3196 9.07847 36.6816 9.75557 37.213 10.287C37.7444 10.8184 38.4215 11.1804 39.1587 11.327C39.8958 11.4736 40.6598 11.3984 41.3542 11.1107C42.0486 10.8231 42.642 10.3361 43.0596 9.71117C43.4771 9.08626 43.7 8.35157 43.7 7.6C43.699 6.59249 43.2983 5.62653 42.5859 4.91411C41.8735 4.20169 40.9075 3.80101 39.9 3.8ZM17.1 15.2C15.5969 15.2 14.1275 14.7543 12.8777 13.9192C11.6279 13.0841 10.6537 11.8971 10.0785 10.5084C9.50329 9.11968 9.35279 7.59157 9.64604 6.11732C9.93928 4.64306 10.6631 3.28887 11.726 2.22599C12.7889 1.16311 14.1431 0.439283 15.6173 0.146035C17.0916 -0.147212 18.6197 0.00329294 20.0084 0.578519C21.3971 1.15374 22.5841 2.12786 23.4192 3.37767C24.2543 4.62748 24.7 6.09687 24.7 7.6C24.6975 9.61488 23.896 11.5465 22.4712 12.9712C21.0465 14.396 19.1149 15.1975 17.1 15.2ZM17.1 3.8C16.3484 3.8 15.6137 4.02287 14.9888 4.44042C14.3639 4.85797 13.8769 5.45145 13.5893 6.14581C13.3016 6.84017 13.2264 7.60422 13.373 8.34135C13.5196 9.07847 13.8816 9.75557 14.413 10.287C14.9444 10.8184 15.6215 11.1804 16.3587 11.327C17.0958 11.4736 17.8598 11.3984 18.5542 11.1107C19.2486 10.8231 19.842 10.3361 20.2596 9.71117C20.6771 9.08626 20.9 8.35157 20.9 7.6C20.899 6.59249 20.4983 5.62653 19.7859 4.91411C19.0735 4.20169 18.1075 3.80101 17.1 3.8Z" fill="#E4B819"/>
</svg>
