<svg width="60" height="67" viewBox="0 0 60 67" fill="none" xmlns="http://www.w3.org/2000/svg">
<path d="M52.7614 58.0139C54.6316 55.6542 56.1068 53.0472 57.188 50.1895C58.3941 47.0018 59 43.6078 59 40C59 35.5323 58.0856 31.4186 56.2659 27.6443C54.5731 24.1333 52.3319 21.1012 49.5403 18.5406L46.2331 21.8478C48.6159 23.9217 50.5198 26.4263 51.9427 29.3527C53.5388 32.6356 54.3332 36.1892 54.3333 39.9992C54.3333 39.9995 54.3333 39.9997 54.3333 40L52.7614 58.0139ZM52.7614 58.0139L49.4236 54.676L52.7614 58.0139ZM31.3738 9.29289L26.7476 4.66667L30 1.41421L41.9191 13.3333L30 25.2525L26.6642 21.9167L31.2071 17.3738L32.9142 15.6667H30.5H30C23.2904 15.6667 17.5361 18.0497 12.7929 22.7929C8.04974 27.536 5.66667 33.2904 5.66667 40C5.66667 42.9431 6.14257 45.7268 7.10099 48.3439C7.94804 50.6568 9.10646 52.769 10.576 54.6764L7.2385 58.014C5.36617 55.6522 3.88997 53.0441 2.80863 50.1861C1.60258 46.9986 0.997852 43.6059 1.00001 40.0006V40C1.00001 31.9289 3.81344 25.1008 9.45711 19.4571C15.1008 13.8134 21.9289 11 30 11H30.6667H33.0809L31.3738 9.29289ZM33.8004 53.9719C33.0565 55.0494 32.5803 56.1723 32.407 57.3333H27.5915C27.4166 56.174 26.9398 55.0522 26.1963 53.9752C25.3226 52.7097 24.354 51.3896 23.2911 50.015L23.2905 50.0142C22.261 48.6856 21.3263 47.3046 20.4861 45.871C19.7119 44.5501 19.3314 43.1547 19.3333 41.668V41.6667C19.3333 38.7096 20.3669 36.214 22.4571 34.1238C24.5473 32.0336 27.0429 31 30 31C32.9571 31 35.4527 32.0336 37.5429 34.1238C39.6331 36.214 40.6667 38.7096 40.6667 41.6667C40.6667 43.1513 40.2851 44.5476 39.5103 45.8716C38.6701 47.3072 37.7368 48.6867 36.7099 50.0104L36.7095 50.0108C35.6442 51.3856 34.6743 52.706 33.8004 53.9719ZM27.6667 65.6667V62.6667H32.3333V65.6667H27.6667Z" stroke="#E4B819" stroke-width="2"/>
</svg>
