<svg width="36" height="36" viewBox="0 0 36 36" fill="none" xmlns="http://www.w3.org/2000/svg">
<path fill-rule="evenodd" clip-rule="evenodd" d="M16.47 0.065195C19.5766 -0.19992 22.6988 0.346459 25.5307 1.65081C28.3627 2.95516 30.8073 4.97275 32.625 7.50595V3.93744C32.625 3.48989 32.8028 3.06067 33.1193 2.7442C33.4357 2.42773 33.8649 2.24994 34.3125 2.24994C34.7601 2.24994 35.1893 2.42773 35.5057 2.7442C35.8222 3.06067 36 3.48989 36 3.93744V13.4999H26.4375C25.9899 13.4999 25.5607 13.3222 25.2443 13.0057C24.9278 12.6892 24.75 12.26 24.75 11.8124C24.75 11.3649 24.9278 10.9357 25.2443 10.6192C25.5607 10.3027 25.9899 10.1249 26.4375 10.1249H30.3232C28.7845 7.71723 26.5742 5.81302 23.9652 4.64752C21.3563 3.48203 18.4632 3.10631 15.6431 3.56679C12.823 4.02727 10.1996 5.30376 8.09695 7.23859C5.99428 9.17343 4.50445 11.6818 3.8115 14.4539C3.76039 14.6717 3.66649 14.8771 3.53528 15.0583C3.40406 15.2394 3.23814 15.3927 3.04716 15.5091C2.85619 15.6256 2.64397 15.7029 2.42284 15.7366C2.20171 15.7703 1.9761 15.7597 1.75911 15.7054C1.54212 15.6511 1.33808 15.5542 1.15887 15.4204C0.979658 15.2865 0.828844 15.1184 0.715196 14.9257C0.601548 14.7331 0.527335 14.5197 0.496873 14.2982C0.46641 14.0766 0.480305 13.8511 0.53775 13.6349C1.44797 9.99541 3.47266 6.73123 6.32878 4.29868C9.18491 1.86613 12.7297 0.386789 16.4677 0.067445L16.47 0.065195ZM8.82 33.4822C11.232 34.9118 13.9446 35.7582 16.7415 35.9539C19.5385 36.1496 22.3425 35.6891 24.9301 34.6093C27.5176 33.5295 29.8171 31.8602 31.6453 29.7343C33.4735 27.6085 34.7797 25.085 35.46 22.3649C35.5613 21.9334 35.4887 21.4793 35.2579 21.1008C35.0272 20.7223 34.6567 20.4499 34.2267 20.3423C33.7967 20.2347 33.3416 20.3006 32.9598 20.5259C32.5779 20.7511 32.3001 21.1175 32.1862 21.5459C31.4929 24.3175 30.003 26.8252 27.9005 28.7596C25.7981 30.6939 23.1751 31.9701 20.3555 32.4305C17.5359 32.891 14.6432 32.5155 12.0346 31.3505C9.42599 30.1855 7.21573 28.2819 5.67675 25.8749H9.5625C10.0101 25.8749 10.4393 25.6972 10.7557 25.3807C11.0722 25.0642 11.25 24.635 11.25 24.1874C11.25 23.7399 11.0722 23.3107 10.7557 22.9942C10.4393 22.6777 10.0101 22.4999 9.5625 22.4999H0V32.0624C0 32.51 0.17779 32.9392 0.494257 33.2557C0.810725 33.5722 1.23995 33.7499 1.6875 33.7499C2.13505 33.7499 2.56428 33.5722 2.88074 33.2557C3.19721 32.9392 3.375 32.51 3.375 32.0624V28.4939C4.82576 30.5151 6.67977 32.2136 8.82 33.4822Z" fill="white"/>
</svg>
