<svg width="60" height="60" viewBox="0 0 60 60" fill="none" xmlns="http://www.w3.org/2000/svg">
<path d="M10.4651 37.2112H12.5581C12.5579 36.8041 12.439 36.4059 12.216 36.0654C11.9929 35.7249 11.6754 35.4568 11.3023 35.294L10.4651 37.2112ZM49.5349 37.2112L48.6977 35.294C48.3246 35.4568 48.0071 35.7249 47.784 36.0654C47.561 36.4059 47.4421 36.8041 47.4419 37.2112H49.5349ZM40.4651 16.0465C40.4651 16.6016 40.6856 17.134 41.0781 17.5265C41.4707 17.919 42.003 18.1395 42.5581 18.1395C43.1132 18.1395 43.6456 17.919 44.0381 17.5265C44.4306 17.134 44.6512 16.6016 44.6512 16.0465H40.4651ZM15.3488 16.0465C15.3488 16.6016 15.5694 17.134 15.9619 17.5265C16.3544 17.919 16.8868 18.1395 17.4419 18.1395C17.997 18.1395 18.5293 17.919 18.9219 17.5265C19.3144 17.134 19.5349 16.6016 19.5349 16.0465H15.3488ZM16.0465 8.37209C11.7907 8.37209 7.70922 10.0627 4.69991 13.072C1.69061 16.0813 3.5668e-08 20.1628 3.5668e-08 24.4186H4.18605C4.18605 21.273 5.43563 18.2563 7.6599 16.032C9.88416 13.8077 12.9009 12.5581 16.0465 12.5581V8.37209ZM43.9535 12.5581C47.0991 12.5581 50.1158 13.8077 52.3401 16.032C54.5644 18.2563 55.814 21.273 55.8139 24.4186H60C60 20.1628 58.3094 16.0813 55.3001 13.072C52.2908 10.0627 48.2093 8.37209 43.9535 8.37209V12.5581ZM38.3721 55.8139H21.6279V60H38.3721V55.8139ZM21.6279 55.8139C18.9377 55.8139 17.1293 55.8084 15.7814 55.627C14.4949 55.454 13.9423 55.1553 13.5795 54.7898L10.6214 57.7535C11.8912 59.0233 13.4735 59.5395 15.226 59.7767C16.9172 60.0056 19.0549 60 21.6279 60V55.8139ZM8.37209 46.7442C8.37209 49.3172 8.36651 51.4549 8.59535 53.146C8.82977 54.8986 9.34884 56.4809 10.6186 57.7507L13.5795 54.7926C13.2167 54.4298 12.9181 53.8772 12.7423 52.5879C12.5637 51.2428 12.5581 49.4344 12.5581 46.7442H8.37209ZM47.4419 46.7442C47.4419 49.4344 47.4363 51.2428 47.2549 52.5907C47.0819 53.8772 46.7833 54.4298 46.4177 54.7926L49.3814 57.7507C50.6512 56.4809 51.1674 54.8986 51.4046 53.146C51.6335 51.4549 51.6279 49.3172 51.6279 46.7442H47.4419ZM38.3721 60C40.9451 60 43.0828 60.0056 44.774 59.7767C46.5265 59.5423 48.1116 59.0233 49.3814 57.7507L46.4205 54.7926C46.0577 55.1553 45.5051 55.454 44.2158 55.6298C42.8707 55.8084 41.0623 55.8139 38.3721 55.8139V60ZM16.0465 12.5581C16.6437 12.5581 17.227 12.6028 17.7991 12.6865L18.4102 8.54512C17.6276 8.42968 16.8376 8.37185 16.0465 8.37209V12.5581ZM30 0C26.938 3.1654e-06 23.9528 0.959014 21.4637 2.74238C18.9746 4.52574 17.1066 7.04389 16.1219 9.94326L20.0847 11.2884C20.7884 9.21714 22.1231 7.41832 23.9015 6.14449C25.6798 4.87066 27.8125 4.18579 30 4.18605V0ZM16.1219 9.94326C15.6084 11.4597 15.3473 13.0501 15.3488 14.6512H19.5349C19.5349 13.4707 19.7302 12.3405 20.0874 11.2884L16.1219 9.94326ZM43.9535 8.37209C43.1526 8.37209 42.3628 8.4307 41.5898 8.54512L42.2037 12.6865C42.783 12.601 43.3679 12.5581 43.9535 12.5581V8.37209ZM30 4.18605C32.187 4.18637 34.3191 4.87151 36.0969 6.1453C37.8747 7.41909 39.209 9.21759 39.9126 11.2884L43.8753 9.94326C42.8908 7.04434 41.0231 4.52651 38.5346 2.74319C36.0461 0.959867 33.0615 0.000586114 30 0V4.18605ZM39.9126 11.2884C40.2698 12.3405 40.4651 13.4707 40.4651 14.6512H44.6512C44.6512 13.0074 44.3777 11.4251 43.8753 9.94326L39.9153 11.2884H39.9126ZM12.5581 46.7442V37.2112H8.37209V46.7442H12.5581ZM11.3023 35.294C9.18664 34.3702 7.38644 32.8492 6.12241 30.9175C4.85837 28.9857 4.18542 26.7272 4.18605 24.4186H3.5668e-08C-0.000208107 27.5413 0.910562 30.5962 2.6207 33.209C4.33084 35.8218 6.76605 37.879 9.62791 39.1284L11.3023 35.294ZM47.4419 37.2112V46.7442H51.6279V37.2112H47.4419ZM55.8139 24.4186C55.8146 26.7272 55.1416 28.9857 53.8776 30.9175C52.6136 32.8492 50.8134 34.3702 48.6977 35.294L50.3721 39.1284C53.2339 37.879 55.6692 35.8218 57.3793 33.209C59.0894 30.5962 60.0002 27.5413 60 24.4186H55.8139ZM40.4651 14.6512V16.0465H44.6512V14.6512H40.4651ZM15.3488 14.6512V16.0465H19.5349V14.6512H15.3488Z" fill="#E4B819"/>
<path d="M10.4651 46.7441H49.5349" stroke="#E4B819" stroke-width="1.5" stroke-linecap="round" stroke-linejoin="round"/>
</svg>
