<svg width="60" height="60" viewBox="0 0 60 60" fill="none" xmlns="http://www.w3.org/2000/svg">
<path d="M0 55.7143H17.1429V60H0V55.7143ZM32.1429 57.8571C31.8219 57.8569 31.505 57.7846 31.2157 57.6455C30.9264 57.5064 30.672 57.3041 30.4714 57.0536L22.5429 47.1429H0V42.8571H23.5714C23.8924 42.8573 24.2093 42.9297 24.4986 43.0687C24.7879 43.2078 25.0422 43.4101 25.2429 43.6607L31.9864 52.0864L43.2171 35.2393C43.4073 34.9542 43.6631 34.7188 43.963 34.553C44.2629 34.3872 44.5982 34.2957 44.9408 34.2863C45.2833 34.2769 45.6232 34.3497 45.9318 34.4987C46.2404 34.6478 46.5087 34.8687 46.7143 35.1429L52.5 42.8571H60V47.1429H51.4286C51.0959 47.1429 50.7678 47.0654 50.4702 46.9166C50.1727 46.7678 49.9139 46.5518 49.7143 46.2857L45.1028 40.1357L33.9257 56.9036C33.7387 57.1841 33.4881 57.4165 33.1943 57.5818C32.9005 57.7471 32.5718 57.8407 32.235 57.855L32.1429 57.8571ZM19.2857 30V19.2857H21.4286C23.701 19.2829 25.8795 18.3789 27.4863 16.7721C29.0932 15.1652 29.9972 12.9867 30 10.7143V4.28571H23.5714C21.3771 4.28931 19.2687 5.13897 17.685 6.65786C16.5754 4.64307 14.9458 2.96268 12.966 1.7917C10.9862 0.620729 8.72871 0.0020121 6.42857 0H0V6.42857C0.00396988 9.83728 1.35983 13.1052 3.77015 15.5156C6.18048 17.9259 9.44843 19.2817 12.8571 19.2857H15V30H0V34.2857H30V30H19.2857ZM23.5714 8.57143H25.7143V10.7143C25.7131 11.8506 25.2613 12.94 24.4578 13.7435C23.6543 14.547 22.5649 14.9989 21.4286 15H19.2857V12.8571C19.2868 11.7208 19.7387 10.6314 20.5422 9.82794C21.3457 9.02446 22.4351 8.57256 23.5714 8.57143ZM12.8571 15C10.5847 14.9972 8.4062 14.0932 6.79936 12.4864C5.19252 10.8795 4.28855 8.70098 4.28571 6.42857V4.28571H6.42857C8.70098 4.28855 10.8795 5.19252 12.4864 6.79936C14.0932 8.4062 14.9972 10.5847 15 12.8571V15H12.8571Z" fill="#E4B819"/>
</svg>
