<svg width="34" height="34" viewBox="0 0 34 34" fill="none" xmlns="http://www.w3.org/2000/svg">
<path d="M0 8.49996V0H8.49996V3.39998H3.39998V8.49996H0ZM0 33.9998V25.4999H3.39998V30.5999H8.49996V33.9998H0ZM25.4999 33.9998V30.5999H30.5999V25.4999H33.9998V33.9998H25.4999ZM30.5999 8.49996V3.39998H25.4999V0H33.9998V8.49996H30.5999ZM26.3499 26.3499H28.8999V28.8999H26.3499V26.3499ZM26.3499 21.2499H28.8999V23.7999H26.3499V21.2499ZM23.7999 23.7999H26.3499V26.3499H23.7999V23.7999ZM21.2499 26.3499H23.7999V28.8999H21.2499V26.3499ZM18.6999 23.7999H21.2499V26.3499H18.6999V23.7999ZM23.7999 18.6999H26.3499V21.2499H23.7999V18.6999ZM21.2499 21.2499H23.7999V23.7999H21.2499V21.2499ZM18.6999 18.6999H21.2499V21.2499H18.6999V18.6999ZM28.8999 5.09998V15.2999H18.6999V5.09998H28.8999ZM15.2999 18.6999V28.8999H5.09998V18.6999H15.2999ZM15.2999 5.09998V15.2999H5.09998V5.09998H15.2999ZM12.7499 26.3499V21.2499H7.64996V26.3499H12.7499ZM12.7499 12.7499V7.64996H7.64996V12.7499H12.7499ZM26.3499 12.7499V7.64996H21.2499V12.7499H26.3499Z" fill="#FAD75D"/>
</svg>
