<svg width="84" height="84" viewBox="0 0 84 84" fill="none" xmlns="http://www.w3.org/2000/svg">
<path d="M36.75 37.625C36.75 38.6592 36.5463 39.6832 36.1506 40.6386C35.7548 41.5941 35.1747 42.4622 34.4435 43.1935C33.7122 43.9247 32.8441 44.5048 31.8886 44.9006C30.9332 45.2963 29.9092 45.5 28.875 45.5C27.8408 45.5 26.8168 45.2963 25.8614 44.9006C24.9059 44.5048 24.0378 43.9247 23.3065 43.1935C22.5753 42.4622 21.9952 41.5941 21.5994 40.6386C21.2037 39.6832 21 38.6592 21 37.625C21 35.5364 21.8297 33.5334 23.3065 32.0565C24.7834 30.5797 26.7864 29.75 28.875 29.75C30.9636 29.75 32.9666 30.5797 34.4435 32.0565C35.9203 33.5334 36.75 35.5364 36.75 37.625ZM32.375 37.625C32.375 36.6967 32.0063 35.8065 31.3499 35.1501C30.6935 34.4937 29.8033 34.125 28.875 34.125C27.9467 34.125 27.0565 34.4937 26.4001 35.1501C25.7437 35.8065 25.375 36.6967 25.375 37.625C25.375 38.5533 25.7437 39.4435 26.4001 40.0999C27.0565 40.7563 27.9467 41.125 28.875 41.125C29.8033 41.125 30.6935 40.7563 31.3499 40.0999C32.0063 39.4435 32.375 38.5533 32.375 37.625ZM28.875 64.75C30.9636 64.75 32.9666 63.9203 34.4435 62.4435C35.9203 60.9666 36.75 58.9636 36.75 56.875C36.75 54.7864 35.9203 52.7834 34.4435 51.3065C32.9666 49.8297 30.9636 49 28.875 49C26.7864 49 24.7834 49.8297 23.3065 51.3065C21.8297 52.7834 21 54.7864 21 56.875C21 58.9636 21.8297 60.9666 23.3065 62.4435C24.7834 63.9203 26.7864 64.75 28.875 64.75ZM28.875 60.375C27.9467 60.375 27.0565 60.0063 26.4001 59.3499C25.7437 58.6935 25.375 57.8033 25.375 56.875C25.375 55.9467 25.7437 55.0565 26.4001 54.4001C27.0565 53.7438 27.9467 53.375 28.875 53.375C29.8033 53.375 30.6935 53.7438 31.3499 54.4001C32.0063 55.0565 32.375 55.9467 32.375 56.875C32.375 57.8033 32.0063 58.6935 31.3499 59.3499C30.6935 60.0063 29.8033 60.375 28.875 60.375ZM23.1875 21C22.6073 21 22.0509 21.2305 21.6407 21.6407C21.2305 22.0509 21 22.6073 21 23.1875C21 23.7677 21.2305 24.3241 21.6407 24.7343C22.0509 25.1445 22.6073 25.375 23.1875 25.375H60.8125C61.3927 25.375 61.9491 25.1445 62.3593 24.7343C62.7695 24.3241 63 23.7677 63 23.1875C63 22.6073 62.7695 22.0509 62.3593 21.6407C61.9491 21.2305 61.3927 21 60.8125 21H23.1875ZM40.25 38.0625C40.25 36.855 41.23 35.875 42.4375 35.875H60.8125C61.3927 35.875 61.9491 36.1055 62.3593 36.5157C62.7695 36.9259 63 37.4823 63 38.0625C63 38.6427 62.7695 39.1991 62.3593 39.6093C61.9491 40.0195 61.3927 40.25 60.8125 40.25H42.4375C41.23 40.25 40.25 39.27 40.25 38.0625ZM42.4375 54.25C41.8573 54.25 41.3009 54.4805 40.8907 54.8907C40.4805 55.3009 40.25 55.8573 40.25 56.4375C40.25 57.0177 40.4805 57.5741 40.8907 57.9843C41.3009 58.3945 41.8573 58.625 42.4375 58.625H60.8125C61.3927 58.625 61.9491 58.3945 62.3593 57.9843C62.7695 57.5741 63 57.0177 63 56.4375C63 55.8573 62.7695 55.3009 62.3593 54.8907C61.9491 54.4805 61.3927 54.25 60.8125 54.25H42.4375ZM21.4375 10.5C18.5367 10.5 15.7547 11.6523 13.7035 13.7035C11.6523 15.7547 10.5 18.5367 10.5 21.4375V62.5625C10.5 65.4633 11.6523 68.2453 13.7035 70.2965C15.7547 72.3477 18.5367 73.5 21.4375 73.5H62.5625C65.4633 73.5 68.2453 72.3477 70.2965 70.2965C72.3477 68.2453 73.5 65.4633 73.5 62.5625V21.4375C73.5 18.5367 72.3477 15.7547 70.2965 13.7035C68.2453 11.6523 65.4633 10.5 62.5625 10.5H21.4375ZM14.875 21.4375C14.875 19.697 15.5664 18.0278 16.7971 16.7971C18.0278 15.5664 19.697 14.875 21.4375 14.875H62.5625C64.303 14.875 65.9722 15.5664 67.2029 16.7971C68.4336 18.0278 69.125 19.697 69.125 21.4375V62.5625C69.125 64.303 68.4336 65.9722 67.2029 67.2029C65.9722 68.4336 64.303 69.125 62.5625 69.125H21.4375C19.697 69.125 18.0278 68.4336 16.7971 67.2029C15.5664 65.9722 14.875 64.303 14.875 62.5625V21.4375Z" fill="#FAD75D"/>
</svg>
