<svg width="28" height="30" viewBox="0 0 28 30" fill="none" xmlns="http://www.w3.org/2000/svg">
<path d="M2.80001 25.2001H9.24003L0.868003 10.696C0.322001 9.80004 0 8.80603 0 7.70003C0.00124861 6.33829 0.498756 5.02369 1.39939 4.00232C2.30002 2.98095 3.54203 2.32285 4.8929 2.1512C6.24378 1.97955 7.61091 2.30613 8.73836 3.0698C9.8658 3.83347 10.6763 4.98187 11.018 6.30002H16.8001V2.80001C16.8001 1.26 18.0601 0 19.6001 0V3.62601L21.8261 1.4H28.0001V4.20001H22.9741L19.6001 7.57403V7.82603L22.9741 11.2H28.0001V14H21.8261L19.6001 11.774V15.4001C18.8575 15.4001 18.1453 15.1051 17.6202 14.58C17.0951 14.0548 16.8001 13.3427 16.8001 12.6V9.10003H11.018C10.878 9.64603 10.654 10.164 10.374 10.64L18.7741 25.2001H25.2001C25.9427 25.2001 26.6549 25.4951 27.18 26.0202C27.7051 26.5453 28.0001 27.2575 28.0001 28.0001V29.4001H0V28.0001C0 26.4601 1.26 25.2001 2.80001 25.2001ZM8.27403 12.6C7.49003 13.048 6.58002 13.3 5.60002 13.3L12.474 25.2001H15.5401L8.27403 12.6ZM5.60002 4.90002C4.85741 4.90002 4.14522 5.19502 3.62011 5.72012C3.09501 6.24522 2.80001 6.95742 2.80001 7.70003C2.80001 9.25403 4.04601 10.5 5.60002 10.5C7.15403 10.5 8.40003 9.25403 8.40003 7.70003C8.40003 6.95742 8.10503 6.24522 7.57993 5.72012C7.05482 5.19502 6.34263 4.90002 5.60002 4.90002Z" fill="#FAD75D"/>
</svg>
