<svg width="76" height="76" viewBox="0 0 76 76" fill="none" xmlns="http://www.w3.org/2000/svg">
<path fill-rule="evenodd" clip-rule="evenodd" d="M52.25 29.3471C54.0914 29.8981 55.4167 30.0833 55.4167 30.0833V25.3333H58.5833C60.683 25.3333 62.6966 24.4993 64.1813 23.0146C65.6659 21.5299 66.5 19.5163 66.5 17.4167C66.5 15.317 65.6659 13.3034 64.1813 11.8187C62.6966 10.3341 60.683 9.5 58.5833 9.5H49.457C47.2583 9.5 45.1496 10.3734 43.5948 11.9282C42.0401 13.4829 41.1667 15.5916 41.1667 17.7903C41.1667 24.9438 48.051 28.0915 52.25 29.3471ZM63.3333 17.4167C63.3333 18.6764 62.8329 19.8846 61.9421 20.7754C61.0513 21.6662 59.8431 22.1667 58.5833 22.1667H52.25V26.0221C51.3813 25.7271 50.5334 25.3743 49.7119 24.966C46.5722 23.3922 44.3333 21.1533 44.3333 17.7903C44.3333 16.4315 44.8731 15.1282 45.834 14.1674C46.7949 13.2065 48.0981 12.6667 49.457 12.6667H58.5833C59.8431 12.6667 61.0513 13.1671 61.9421 14.0579C62.8329 14.9487 63.3333 16.1569 63.3333 17.4167ZM23.4603 28.4889C21.3853 28.4171 19.4217 27.5327 17.9929 26.0264C16.564 24.5201 15.7843 22.5127 15.8219 20.4368C15.8595 18.361 16.7114 16.3831 18.1939 14.9296C19.6763 13.476 21.6707 12.6633 23.7468 12.6667H28.7644C30.7939 12.6667 32.7403 13.4729 34.1754 14.908C35.6105 16.343 36.4167 18.2894 36.4167 20.3189C36.4167 26.7188 30.6692 29.6448 26.9167 30.875C25.099 31.4703 23.75 31.6667 23.75 31.6667V28.5L23.4603 28.4889ZM26.9167 25.4457L23.5758 25.3254C22.3204 25.2981 21.1269 24.7745 20.2567 23.8692C19.3865 22.9638 18.9105 21.7505 18.9329 20.495C18.9553 19.2394 19.4743 18.0439 20.3763 17.1702C21.2782 16.2965 22.4896 15.8158 23.7452 15.8333H28.7628C29.352 15.8331 29.9355 15.949 30.4799 16.1743C31.0243 16.3997 31.519 16.73 31.9356 17.1466C32.3523 17.5631 32.6829 18.0577 32.9084 18.602C33.1339 19.1463 33.25 19.7297 33.25 20.3189C33.25 23.351 31.3231 25.3381 28.6203 26.7472C28.0503 27.0449 27.4724 27.2983 26.9167 27.5136V25.4457ZM44.3333 38C44.3333 41.4992 41.4992 44.3333 38 44.3333C34.5008 44.3333 31.6667 41.4992 31.6667 38C31.6667 34.5008 34.5008 31.6667 38 31.6667C41.4992 31.6667 44.3333 34.5008 44.3333 38ZM41.1667 38C41.1667 38.8399 40.833 39.6453 40.2392 40.2392C39.6453 40.833 38.8399 41.1667 38 41.1667C37.1601 41.1667 36.3547 40.833 35.7608 40.2392C35.167 39.6453 34.8333 38.8399 34.8333 38C34.8333 37.1601 35.167 36.3547 35.7608 35.7608C36.3547 35.167 37.1601 34.8333 38 34.8333C38.8399 34.8333 39.6453 35.167 40.2392 35.7608C40.833 36.3547 41.1667 37.1601 41.1667 38ZM30.0833 41.1667C30.0833 44.6658 27.2492 47.5 23.75 47.5C20.2508 47.5 17.4167 44.6658 17.4167 41.1667C17.4167 37.6675 20.2508 34.8333 23.75 34.8333C27.2492 34.8333 30.0833 37.6675 30.0833 41.1667ZM26.9167 41.1667C26.9167 42.0065 26.583 42.812 25.9892 43.4058C25.3953 43.9997 24.5899 44.3333 23.75 44.3333C22.9101 44.3333 22.1047 43.9997 21.5108 43.4058C20.917 42.812 20.5833 42.0065 20.5833 41.1667C20.5833 40.3268 20.917 39.5214 21.5108 38.9275C22.1047 38.3336 22.9101 38 23.75 38C24.5899 38 25.3953 38.3336 25.9892 38.9275C26.583 39.5214 26.9167 40.3268 26.9167 41.1667ZM9.5 57.8629C9.5 53.0781 18.9937 50.6667 23.75 50.6667C24.6763 50.6667 25.783 50.7585 26.9642 50.9406C29.0858 49.3842 32.9761 47.5 38 47.5C43.0223 47.5 46.9126 49.3842 49.0374 50.9406C50.0999 50.7692 51.1738 50.6777 52.25 50.6667C57.0063 50.6667 66.5 53.0781 66.5 57.8629V66.5H9.5V57.8629ZM34.2823 57.0364C34.8333 57.5494 34.8333 57.817 34.8333 57.8629V63.3333H12.6667V57.8629C12.6667 57.8154 12.6667 57.5494 13.2177 57.0364C13.7924 56.4997 14.7408 55.9281 16.0297 55.4056C18.6137 54.3606 21.7708 53.8333 23.75 53.8333C25.7292 53.8333 28.8863 54.3606 31.4703 55.4056C32.7592 55.9281 33.7076 56.4997 34.2823 57.0364ZM44.5582 52.022C42.4884 51.1245 40.2559 50.6632 38 50.6667C35.378 50.6667 33.1487 51.2778 31.4434 52.022C34.9505 53.2 38 55.1507 38 57.8645C38 55.1507 41.0495 53.2016 44.5582 52.022ZM63.3333 57.8645C63.3333 57.817 63.3333 57.5494 62.7823 57.0364C62.2076 56.4997 61.2592 55.9281 59.9703 55.4056C57.3863 54.3606 54.2292 53.8333 52.25 53.8333C50.2708 53.8333 47.1137 54.3606 44.5297 55.4056C43.2408 55.9281 42.2924 56.4997 41.7177 57.0364C41.1667 57.5494 41.1667 57.817 41.1667 57.8629V63.3333H63.3333V57.8629V57.8645ZM52.25 47.5C55.7492 47.5 58.5833 44.6658 58.5833 41.1667C58.5833 37.6675 55.7492 34.8333 52.25 34.8333C48.7508 34.8333 45.9167 37.6675 45.9167 41.1667C45.9167 44.6658 48.7508 47.5 52.25 47.5ZM52.25 44.3333C53.0899 44.3333 53.8953 43.9997 54.4892 43.4058C55.083 42.812 55.4167 42.0065 55.4167 41.1667C55.4167 40.3268 55.083 39.5214 54.4892 38.9275C53.8953 38.3336 53.0899 38 52.25 38C51.4101 38 50.6047 38.3336 50.0108 38.9275C49.417 39.5214 49.0833 40.3268 49.0833 41.1667C49.0833 42.0065 49.417 42.812 50.0108 43.4058C50.6047 43.9997 51.4101 44.3333 52.25 44.3333Z" fill="#FAD75D"/>
</svg>
