<svg width="61" height="46" viewBox="0 0 61 46" fill="none" xmlns="http://www.w3.org/2000/svg">
<path d="M53.6395 0.754644C52.9924 0.335999 52.2523 0.0827285 51.4844 0.0170936C50.7165 -0.0485412 49.9442 0.0754702 49.2354 0.378227L26.0104 9.52517C25.4606 9.74895 24.8726 9.864 24.2789 9.86395H9.41044C8.16253 9.86395 6.96574 10.3597 6.08334 11.2421C5.20094 12.1245 4.70522 13.3213 4.70522 14.5692V14.9456H0V26.2381H4.70522V26.7274C4.7347 27.9557 5.24342 29.1237 6.12264 29.9818C7.00187 30.8399 8.18186 31.3201 9.41044 31.3197L15.0567 43.2898C15.439 44.0959 16.0409 44.7778 16.7933 45.2572C17.5457 45.7366 18.4181 45.9941 19.3102 46H21.6816C22.923 45.9901 24.1102 45.49 24.9844 44.6087C25.8587 43.7273 26.3493 42.5362 26.3492 41.2948V31.7714L49.2354 40.9184C49.7983 41.1424 50.3987 41.2574 51.0046 41.2572C51.9445 41.242 52.8599 40.9543 53.6395 40.429C54.2586 40.011 54.7693 39.4516 55.1293 38.797C55.4893 38.1425 55.6883 37.4116 55.7098 36.6649V4.63174C55.7063 3.86579 55.5159 3.11227 55.1552 2.4366C54.7944 1.76094 54.2741 1.18357 53.6395 0.754644ZM21.644 14.5692V26.7274H9.41044V14.5692H21.644ZM21.644 41.2948H19.2726L14.6426 31.3197H21.644V41.2948ZM27.742 27.2921C27.295 27.0637 26.829 26.8748 26.3492 26.7274V14.3057C26.8244 14.2076 27.2904 14.0691 27.742 13.8916L51.0046 4.63174V36.5519L27.742 27.2921ZM55.8227 15.8866V25.2971C57.0706 25.2971 58.2674 24.8013 59.1498 23.9189C60.0322 23.0365 60.5279 21.8397 60.5279 20.5918C60.5279 19.3439 60.0322 18.1472 59.1498 17.2648C58.2674 16.3824 57.0706 15.8866 55.8227 15.8866Z" fill="#E4B819"/>
</svg>
