<svg width="34" height="30" viewBox="0 0 34 30" fill="none" xmlns="http://www.w3.org/2000/svg">
<path d="M23.1305 7.9646C22.8429 7.9646 22.594 7.85952 22.3839 7.64934C22.1737 7.43916 22.0686 7.19027 22.0686 6.90266C22.0686 6.3385 22.1737 5.79646 22.3839 5.27655C22.594 4.75664 22.9038 4.29757 23.3131 3.89934L24.6239 2.5719C25.0443 2.15155 25.2544 1.64823 25.2544 1.06195C25.2544 0.774336 25.3595 0.525443 25.5697 0.315266C25.7799 0.105089 26.0288 0 26.3164 0C26.604 0 26.8529 0.105089 27.0631 0.315266C27.2732 0.525443 27.3783 0.774336 27.3783 1.06195C27.3783 1.62611 27.2732 2.16814 27.0631 2.68805C26.8529 3.20797 26.5432 3.66704 26.1339 4.06527L24.823 5.3927C24.4027 5.81305 24.1925 6.31637 24.1925 6.90266C24.1925 7.19027 24.0874 7.43916 23.8772 7.64934C23.667 7.85952 23.4181 7.9646 23.1305 7.9646ZM16.7589 7.9646C16.4712 7.9646 16.2223 7.85952 16.0122 7.64934C15.802 7.43916 15.6969 7.19027 15.6969 6.90266C15.6969 6.3385 15.802 5.79646 16.0122 5.27655C16.2223 4.75664 16.5321 4.29757 16.9414 3.89934L18.2522 2.5719C18.6726 2.15155 18.8827 1.64823 18.8827 1.06195C18.8827 0.774336 18.9878 0.525443 19.198 0.315266C19.4082 0.105089 19.6571 0 19.9447 0C20.2323 0 20.4812 0.105089 20.6914 0.315266C20.9016 0.525443 21.0066 0.774336 21.0066 1.06195C21.0066 1.62611 20.9016 2.16814 20.6914 2.68805C20.4812 3.20797 20.1715 3.66704 19.7622 4.06527L18.4513 5.3927C18.031 5.81305 17.8208 6.31637 17.8208 6.90266C17.8208 7.19027 17.7157 7.43916 17.5055 7.64934C17.2954 7.85952 17.0465 7.9646 16.7589 7.9646ZM30.5642 10.885C31.0066 10.885 31.4215 10.9679 31.8086 11.1339C32.1958 11.2998 32.5332 11.5266 32.8208 11.8142C33.1084 12.1018 33.3352 12.4392 33.5011 12.8263C33.667 13.2135 33.75 13.6283 33.75 14.0708V20.4425C33.75 20.885 33.667 21.2998 33.5011 21.687C33.3352 22.0741 33.1084 22.4115 32.8208 22.6991C32.5332 22.9867 32.1958 23.2135 31.8086 23.3794C31.4215 23.5454 31.0066 23.6283 30.5642 23.6283H29.6184C29.5962 23.7058 29.5797 23.7777 29.5686 23.844C29.5575 23.9104 29.5354 23.9768 29.5022 24.0431V24.6903C29.5022 25.4204 29.3639 26.1062 29.0874 26.7478C28.8108 27.3894 28.4292 27.9535 27.9425 28.4403C27.4558 28.927 26.8916 29.3086 26.25 29.5852C25.6084 29.8617 24.9226 30 24.1925 30H17.8208C16.958 30 16.1615 29.8064 15.4314 29.4193C14.7013 29.0321 14.0929 28.5177 13.6062 27.8761H5.30974C4.57965 27.8761 3.89381 27.7378 3.25221 27.4613C2.61062 27.1847 2.04646 26.8086 1.55974 26.333C1.07301 25.8573 0.691372 25.2931 0.414823 24.6405C0.138274 23.9878 0 23.2965 0 22.5664V21.5044H4.24779C4.24779 20.6305 4.41372 19.8064 4.74558 19.0321C5.07744 18.2577 5.53651 17.583 6.12279 17.0077C6.70907 16.4325 7.38385 15.9735 8.14713 15.6305C8.9104 15.2876 9.73452 15.1217 10.6195 15.1327C10.9513 15.1327 11.2721 15.1604 11.5819 15.2157C11.8916 15.271 12.2013 15.3485 12.5111 15.448V8.76106H29.5022V10.885H30.5642ZM10.6195 17.2566C10.0332 17.2566 9.48562 17.3673 8.97677 17.5885C8.46792 17.8097 8.01438 18.1139 7.61615 18.5011C7.21792 18.8883 6.91372 19.3363 6.70354 19.8451C6.49336 20.354 6.38275 20.9071 6.37168 21.5044H12.5111V17.7212C12.2235 17.5774 11.9248 17.4668 11.615 17.3894C11.3053 17.312 10.9735 17.2677 10.6195 17.2566ZM5.30974 25.7522H12.6272C12.5498 25.4314 12.5111 25.0774 12.5111 24.6903V23.6283H2.30642C2.41704 23.9381 2.5719 24.2201 2.77102 24.4746C2.97013 24.729 3.1969 24.9558 3.45133 25.1549C3.70575 25.354 3.99336 25.4978 4.31416 25.5863C4.63496 25.6748 4.96682 25.7301 5.30974 25.7522ZM12.9923 26.8639V26.8805L13.0089 26.9137V26.8971L12.9923 26.8639ZM27.3783 24.6903V10.885H14.635V24.6903C14.635 25.1328 14.7179 25.5476 14.8839 25.9347C15.0498 26.3219 15.2766 26.6593 15.5642 26.9469C15.8518 27.2345 16.1892 27.4613 16.5763 27.6272C16.9635 27.7932 17.3783 27.8761 17.8208 27.8761H24.1925C24.635 27.8761 25.0498 27.7932 25.437 27.6272C25.8241 27.4613 26.1615 27.2345 26.4491 26.9469C26.7367 26.6593 26.9635 26.3219 27.1294 25.9347C27.2954 25.5476 27.3783 25.1328 27.3783 24.6903ZM31.6261 20.4425V14.0708C31.6261 13.7832 31.521 13.5343 31.3109 13.3241C31.1007 13.1139 30.8518 13.0089 30.5642 13.0089H29.5022V21.5044H30.5642C30.8518 21.5044 31.1007 21.3993 31.3109 21.1892C31.521 20.979 31.6261 20.7301 31.6261 20.4425Z" fill="#FAD75D"/>
</svg>
