<svg width="28" height="27" viewBox="0 0 28 27" fill="none" xmlns="http://www.w3.org/2000/svg">
<path d="M26.9231 10.761H25.7964C25.5258 7.81949 24.166 5.08519 21.9837 3.09441C19.8013 1.10362 16.954 0 14 0C11.0461 0 8.19872 1.10362 6.01639 3.09441C3.83407 5.08519 2.47425 7.81949 2.20366 10.761H1.07693C0.791307 10.761 0.517387 10.8745 0.315424 11.0764C0.113461 11.2784 0 11.5523 0 11.8379C0.00473175 14.399 0.709549 16.9101 2.03823 19.0996C3.36691 21.289 5.26889 23.0736 7.53848 24.2603V24.761C7.53848 25.3323 7.7654 25.8801 8.16933 26.284C8.57325 26.688 9.12109 26.9149 9.69233 26.9149H18.3077C18.879 26.9149 19.4268 26.688 19.8307 26.284C20.2347 25.8801 20.4616 25.3323 20.4616 24.761V24.2603C22.7312 23.0736 24.6331 21.289 25.9618 19.0996C27.2905 16.9101 27.9953 14.399 28.0001 11.8379C28.0001 11.5523 27.8866 11.2784 27.6846 11.0764C27.4827 10.8745 27.2088 10.761 26.9231 10.761ZM23.6304 10.761H16.7085C18.0142 8.8022 19.9895 7.38689 22.2641 6.78043C23.0078 7.99016 23.4744 9.34956 23.6304 10.761ZM20.1224 4.33042C20.3691 4.53235 20.6056 4.74549 20.8318 4.96985C17.965 5.97832 15.5959 8.05094 14.2154 10.7583H10.2443C10.9173 8.87159 12.1565 7.23867 13.7925 6.08264C15.4285 4.92662 17.3815 4.30386 19.3847 4.29946C19.631 4.29946 19.8774 4.31158 20.1224 4.33042ZM14 2.14561C14.8642 2.14618 15.7244 2.26254 16.5577 2.49157C14.5283 2.995 12.6674 4.0245 11.1627 5.4763C9.65796 6.92811 8.5625 8.75092 7.98675 10.761H4.36963C4.63676 8.39294 5.76602 6.20598 7.54212 4.61708C9.31822 3.02817 11.6169 2.14844 14 2.14561ZM18.935 22.6072C18.7472 22.6935 18.5881 22.8321 18.4769 23.0063C18.3657 23.1806 18.3069 23.3832 18.3077 23.5899V24.761H9.69233V23.5899C9.69312 23.3832 9.63439 23.1806 9.52315 23.0063C9.41191 22.8321 9.25287 22.6935 9.06502 22.6072C7.17114 21.7357 5.53981 20.3814 4.33477 18.6801C3.12973 16.9789 2.39338 14.9906 2.19962 12.9149H25.7964C25.603 14.9902 24.8673 16.9782 23.663 18.6794C22.4587 20.3806 20.8282 21.7351 18.935 22.6072Z" fill="#FAD75D"/>
</svg>
