<svg width="68" height="67" viewBox="0 0 68 67" fill="none" xmlns="http://www.w3.org/2000/svg">
<path d="M11.3333 53.0416H24.3667L7.42332 24.12C6.31832 22.3333 5.66666 20.3512 5.66666 18.1458C5.66918 15.4304 6.67604 12.8091 8.49874 10.7724C10.3214 8.73577 12.835 7.42347 15.5689 7.0812C18.3028 6.73893 21.0696 7.39014 23.3514 8.91293C25.6331 10.4357 27.2733 12.7257 27.965 15.3541H39.6667V8.37496C39.6667 5.30413 42.2167 2.79163 45.3333 2.79163V10.022L49.8383 5.58329H62.3333V11.1666H52.1617L45.3333 17.8945V18.397L52.1617 25.125H62.3333V30.7083H49.8383L45.3333 26.2695V33.5C43.8304 33.5 42.3891 32.9117 41.3264 31.8646C40.2637 30.8176 39.6667 29.3974 39.6667 27.9166V20.9375H27.965C27.6817 22.0262 27.2283 23.0591 26.6617 24.0083L43.6617 53.0416H56.6667C58.1696 53.0416 59.6109 53.6299 60.6736 54.6769C61.7363 55.724 62.3333 57.1442 62.3333 58.625V61.4166H5.66666V58.625C5.66666 55.5541 8.21666 53.0416 11.3333 53.0416ZM22.4117 27.9166C20.825 28.81 18.9833 29.3125 17 29.3125L30.9117 53.0416H37.1167L22.4117 27.9166ZM17 12.5625C15.4971 12.5625 14.0558 13.1507 12.9931 14.1978C11.9303 15.2449 11.3333 16.665 11.3333 18.1458C11.3333 21.2445 13.855 23.7291 17 23.7291C20.145 23.7291 22.6667 21.2445 22.6667 18.1458C22.6667 16.665 22.0696 15.2449 21.0069 14.1978C19.9442 13.1507 18.5029 12.5625 17 12.5625Z" fill="#FAD75D"/>
</svg>
