<svg width="60" height="60" viewBox="0 0 60 60" fill="none" xmlns="http://www.w3.org/2000/svg">
<path d="M51.4286 42.8571C47.4471 42.8571 44.1214 45.6 43.1614 49.2857H16.8386C16.4529 47.8133 15.6824 46.4701 14.6061 45.3939C13.5299 44.3176 12.1867 43.5471 10.7143 43.1614V36.4286C10.7143 34.065 12.6364 32.1429 15 32.1429H45C49.7271 32.1429 53.5714 28.2986 53.5714 23.5714V16.8386C57.2571 15.8807 60 12.5529 60 8.57143C60 3.84429 56.1557 0 51.4286 0C46.7014 0 42.8571 3.84429 42.8571 8.57143C42.8571 12.5529 45.6 15.8786 49.2857 16.8386V23.5714C49.2857 25.935 47.3636 27.8571 45 27.8571H15C10.2729 27.8571 6.42857 31.7014 6.42857 36.4286V43.1614C2.74286 44.1193 0 47.4471 0 51.4286C0 56.1557 3.84429 60 8.57143 60C12.5529 60 15.8786 57.2571 16.8386 53.5714H43.1614C44.1193 57.2571 47.4471 60 51.4286 60C56.1557 60 60 56.1557 60 51.4286C60 46.7014 56.1557 42.8571 51.4286 42.8571ZM47.1429 8.57143C47.1429 6.20786 49.065 4.28571 51.4286 4.28571C53.7921 4.28571 55.7143 6.20786 55.7143 8.57143C55.7143 10.935 53.7921 12.8571 51.4286 12.8571C49.065 12.8571 47.1429 10.935 47.1429 8.57143ZM8.57143 55.7143C6.20786 55.7143 4.28571 53.7921 4.28571 51.4286C4.28571 49.065 6.20786 47.1429 8.57143 47.1429C10.935 47.1429 12.8571 49.065 12.8571 51.4286C12.8571 53.7921 10.935 55.7143 8.57143 55.7143ZM51.4286 55.7143C49.065 55.7143 47.1429 53.7921 47.1429 51.4286C47.1429 49.065 49.065 47.1429 51.4286 47.1429C53.7921 47.1429 55.7143 49.065 55.7143 51.4286C55.7143 53.7921 53.7921 55.7143 51.4286 55.7143Z" fill="#E4B819"/>
</svg>
