<svg width="71" height="71" viewBox="0 0 71 71" fill="none" xmlns="http://www.w3.org/2000/svg">
<path d="M23.6667 41.4166H47.3333M23.6667 29.5833H29.5833M23.6667 53.25H35.5M29.5833 8.87498H17.75C16.1808 8.87498 14.6759 9.49834 13.5663 10.6079C12.4567 11.7175 11.8333 13.2224 11.8333 14.7916V59.1666C11.8333 60.7358 12.4567 62.2408 13.5663 63.3504C14.6759 64.4599 16.1808 65.0833 17.75 65.0833H53.25C54.8192 65.0833 56.3241 64.4599 57.4337 63.3504C58.5433 62.2408 59.1667 60.7358 59.1667 59.1666V14.7916C59.1667 13.2224 58.5433 11.7175 57.4337 10.6079C56.3241 9.49834 54.8192 8.87498 53.25 8.87498H42.8958M29.5833 8.87498V2.95831M29.5833 8.87498V14.7916" stroke="#FAD75D" stroke-width="2.5" stroke-linecap="round" stroke-linejoin="round"/>
</svg>
