<svg width="66" height="66" viewBox="0 0 66 66" fill="none" xmlns="http://www.w3.org/2000/svg">
<path d="M61.875 22.0275L57.75 9.6525C57.6065 9.2256 57.3272 8.85741 56.9548 8.60416C56.5824 8.35091 56.1373 8.22652 55.6875 8.25H10.3125C9.86275 8.22652 9.41766 8.35091 9.04524 8.60416C8.67281 8.85741 8.39352 9.2256 8.25001 9.6525L4.12501 22.0275C4.09529 22.2465 4.09529 22.4685 4.12501 22.6875V35.0625C4.12501 35.6095 4.34231 36.1341 4.7291 36.5209C5.11589 36.9077 5.6405 37.125 6.18751 37.125H8.25001V57.75H12.375V37.125H24.75V57.75H57.75V37.125H59.8125C60.3595 37.125 60.8841 36.9077 61.2709 36.5209C61.6577 36.1341 61.875 35.6095 61.875 35.0625V22.6875C61.9047 22.4685 61.9047 22.2465 61.875 22.0275ZM53.625 53.625H28.875V37.125H53.625V53.625ZM57.75 33H49.5V24.75H45.375V33H35.0625V24.75H30.9375V33H20.625V24.75H16.5V33H8.25001V23.0175L11.7975 12.375H54.2025L57.75 23.0175V33Z" fill="#FAD75D"/>
</svg>
