<svg width="60" height="60" viewBox="0 0 60 60" fill="none" xmlns="http://www.w3.org/2000/svg">
<path d="M28.1364 0L26.1978 4.40637C25.1944 4.46733 24.1959 4.59313 23.2089 4.78297L20.2435 0.970797L17.0473 2.05267L17.0314 6.90285C15.6775 7.5957 14.38 8.43335 13.1543 9.411L8.63721 7.38622L6.32458 9.83515L8.63708 14.2018C7.89929 15.2489 7.25093 16.3557 6.69879 17.5106L1.73934 17.6453L0.732366 20.8508L4.73656 23.7873C4.54487 24.9767 4.45126 26.1785 4.44591 27.3814L0 29.6241L0.465657 32.9527L5.34551 33.9037C5.63723 34.9206 5.99896 35.9162 6.42814 36.8836L3.21222 40.8582L5.00722 43.7031L10.0064 42.5382C10.3228 42.9088 10.6506 43.2695 10.9894 43.6198C11.6972 44.3486 12.451 45.0315 13.2464 45.6645L12.2752 50.6494L15.1968 52.3296L19.0137 49.0208C20.1059 49.4578 21.2304 49.8102 22.3772 50.0748L23.6231 54.9447L26.9862 55.2182L29.0082 50.6255C30.4054 50.5418 31.7981 50.3338 33.1675 49.9993L36.3797 53.7045L39.5121 52.4562L39.4204 50.5779L32.1087 45.0582C29.9801 45.594 27.7728 45.7374 25.6049 45.4939C21.5605 45.04 17.6737 43.2216 14.6235 40.0812C7.65163 32.9025 7.85096 21.4832 15.0614 14.5425C18.5538 11.1806 23.0461 9.47516 27.5435 9.42685C32.3312 9.37537 37.1233 11.2016 40.7181 14.903C46.5688 20.9277 47.3662 29.9906 43.2097 36.8519L47.2817 39.9268C47.7879 39.1364 48.2452 38.3159 48.6509 37.47L53.5743 37.3352L54.5813 34.1297L50.6052 31.2132C50.797 30.014 50.8941 28.8017 50.8956 27.5874L55.3138 25.3526L54.8482 22.024L49.9726 21.073C49.5623 19.6669 49.0186 18.3029 48.3486 16.9995L51.2539 12.9933L49.3115 10.2471L44.5276 11.63C44.4675 11.5666 44.4091 11.5023 44.3483 11.4398C43.5953 10.6642 42.7894 9.94119 41.9363 9.27608L42.8518 4.56855L39.9299 2.88855L36.2999 6.03502C35.1248 5.5642 33.9178 5.19774 32.6937 4.9255L31.5037 0.273385L28.1364 0ZM20.7291 19.4641C19.4116 19.4791 18.1057 19.8012 16.9081 20.3872L22.6677 24.7383C24.4096 26.054 24.9036 28.5544 23.5669 30.3096C22.2298 32.0658 19.6623 32.3298 17.8952 30.9954L12.1397 26.6483C11.5504 29.7921 12.6664 33.1232 15.3996 35.1877C17.8508 37.0386 20.9966 37.3852 23.7065 36.4162L24.3153 36.1981L24.8286 36.5865L42.0475 49.5918L42.5608 49.98L42.517 50.6221C42.3085 53.4814 43.4837 56.4055 45.936 58.2577C48.6693 60.322 52.1955 60.4932 55.0785 59.0819L49.3233 54.7351C47.5561 53.4004 47.1221 50.8669 48.4597 49.1122C49.7971 47.3573 52.3491 47.1588 54.0915 48.4742L59.847 52.8213C60.435 49.6786 59.3236 46.3459 56.5911 44.2819C54.1313 42.4233 51.0102 42.055 48.3163 43.0097L47.7113 43.2238L47.198 42.8354L29.9791 29.8303L29.4658 29.4419L29.5096 28.8041C29.7071 25.9654 28.5098 23.0734 26.0507 21.2156C24.453 20.009 22.5835 19.4432 20.7293 19.4642L20.7291 19.4641ZM26.2777 30.908L47.1501 46.6751L45.7131 48.5652L24.8368 32.7942L26.2777 30.908Z" fill="#E4B819"/>
</svg>
