<svg width="61" height="61" viewBox="0 0 61 61" fill="none" xmlns="http://www.w3.org/2000/svg">
<path d="M38.6333 50.8333V52.8667C39.1726 52.8667 39.6898 52.6524 40.0711 52.2711C40.4524 51.8898 40.6667 51.3726 40.6667 50.8333H38.6333ZM22.3667 50.8333H20.3333C20.3333 51.3726 20.5476 51.8898 20.9289 52.2711C21.3102 52.6524 21.8274 52.8667 22.3667 52.8667V50.8333ZM24.4 61H36.6V56.9333H24.4V61ZM14.5587 26.0267L14.518 26.3113L18.544 26.8807L18.5887 26.596L14.5587 26.0267ZM30.5 12.2C26.6234 12.1993 22.8767 13.5974 19.9482 16.1375C17.0197 18.6775 15.106 22.1889 14.5587 26.0267L18.5887 26.596C18.9989 23.7284 20.4257 21.105 22.6145 19.2075C24.8034 17.3101 27.6032 16.2659 30.5 16.2667V12.2ZM46.4413 26.0267C45.894 22.1889 43.9803 18.6775 41.0518 16.1375C38.1232 13.5974 34.3766 12.1993 30.5 12.2V16.2667C33.3965 16.2667 36.1959 17.3112 38.3846 19.2085C40.5732 21.1059 42.0043 23.7288 42.4153 26.596L46.4413 26.0267ZM46.482 26.3113L46.4413 26.0267L42.4153 26.596L42.4519 26.8807L46.482 26.3113ZM43.2693 38.4666C45.8313 35.1563 47.1245 30.8457 46.482 26.3113L42.456 26.8847C42.6889 28.4839 42.5964 30.1136 42.1841 31.6761C41.7718 33.2386 41.0482 34.7018 40.0567 35.9778L43.2693 38.4666ZM36.6 44.3267V50.8333H40.6667V44.3307H36.6V44.3267ZM38.6333 48.8H22.3667V52.8667H38.6333V48.8ZM24.4 50.8333V44.3307H20.3333V50.8333H24.4ZM14.518 26.3113C14.2089 28.4493 14.334 30.6277 14.886 32.7162C15.438 34.8048 16.4055 36.7605 17.7307 38.4666L20.9474 35.9778C19.9558 34.7018 19.2281 33.2386 18.8159 31.6761C18.4036 30.1136 18.3111 28.4798 18.544 26.8807L14.518 26.3113ZM24.4 44.3267C24.4 40.9798 22.6188 38.1331 20.9433 35.9737L17.7307 38.4666C19.2882 40.4796 20.3333 42.3991 20.3333 44.3267H24.4ZM40.0567 35.9737C38.3771 38.1372 36.6 40.9798 36.6 44.3267H40.6667C40.6667 42.3991 41.7118 40.4796 43.2693 38.4666L40.0567 35.9737ZM28.4667 0V8.13333H32.5333V0H28.4667ZM0 32.5333H8.13333V28.4667H0V32.5333ZM52.8667 32.5333H61V28.4667H52.8667V32.5333ZM13.6396 14.8271L7.5396 8.72706L4.6604 11.6063L10.7604 17.7063L13.6396 14.8271ZM50.2396 17.7063L56.3396 11.6063L53.4604 8.72706L47.3604 14.8271L50.2396 17.7063Z" fill="#E4B819"/>
</svg>
