<svg width="60" height="60" viewBox="0 0 60 60" fill="none" xmlns="http://www.w3.org/2000/svg">
<path d="M53.5617 23.4043C55.7231 24.6406 57.4756 26.475 58.6055 28.6837C59.7355 30.8925 60.194 33.3801 59.9251 35.8432C59.6563 38.3063 58.6717 40.6385 57.0914 42.5554C55.5112 44.4722 53.4036 45.8909 51.0257 46.6383C50.1852 50.4269 48.0675 53.8167 45.023 56.2466C41.9786 58.6765 38.19 60.0007 34.2846 60H27.8589C27.2909 60 26.7461 59.7758 26.3444 59.3768C25.9427 58.9778 25.717 58.4366 25.717 57.8723C25.717 57.3081 25.9427 56.7669 26.3444 56.3679C26.7461 55.9688 27.2909 55.7447 27.8589 55.7447H34.2846C36.9432 55.7454 39.5367 54.9274 41.7078 53.4032C43.8789 51.8791 45.521 49.7237 46.4078 47.234H44.9941C44.426 47.234 43.8812 47.0099 43.4796 46.6109C43.0779 46.2119 42.8522 45.6707 42.8522 45.1064V23.8298C42.8522 23.2655 43.0779 22.7243 43.4796 22.3253C43.8812 21.9263 44.426 21.7021 44.9941 21.7021H47.136C47.83 21.7021 48.5111 21.7574 49.1794 21.8638C48.6971 17.1442 46.4685 12.7704 42.9253 9.58988C39.382 6.40933 34.7764 4.64847 30.0008 4.64847C25.2252 4.64847 20.6197 6.40933 17.0764 9.58988C13.5332 12.7704 11.3045 17.1442 10.8223 21.8638C11.4981 21.7563 12.1813 21.7022 12.8657 21.7021H15.0076C15.5756 21.7021 16.1204 21.9263 16.5221 22.3253C16.9238 22.7243 17.1495 23.2655 17.1495 23.8298V45.1064C17.1495 45.6707 16.9238 46.2119 16.5221 46.6109C16.1204 47.0099 15.5756 47.234 15.0076 47.234H12.8657C10.034 47.2372 7.28059 46.3112 5.03319 44.6C2.7858 42.8888 1.17027 40.4882 0.437619 37.7711C-0.295035 35.054 -0.103793 32.1727 0.981631 29.5747C2.06706 26.9767 3.98589 24.8075 6.44 23.4043C6.44 17.1971 8.92229 11.2441 13.3408 6.85495C17.7593 2.4658 23.7521 0 30.0008 0C36.2496 0 42.2424 2.4658 46.6609 6.85495C51.0794 11.2441 53.5617 17.1971 53.5617 23.4043ZM12.8657 25.9574C10.5934 25.9574 8.41422 26.8541 6.80749 28.4502C5.20076 30.0462 4.2981 32.2109 4.2981 34.4681C4.2981 36.7252 5.20076 38.89 6.80749 40.486C8.41422 42.0821 10.5934 42.9787 12.8657 42.9787V25.9574ZM55.7036 34.4681C55.7036 32.2109 54.8009 30.0462 53.1942 28.4502C51.5875 26.8541 49.4083 25.9574 47.136 25.9574V42.9787C49.4083 42.9787 51.5875 42.0821 53.1942 40.486C54.8009 38.89 55.7036 36.7252 55.7036 34.4681Z" fill="#E4B819"/>
</svg>
