<svg width="57" height="60" viewBox="0 0 57 60" fill="none" xmlns="http://www.w3.org/2000/svg">
<path d="M43.1274 0C42.6301 0 42.1532 0.197544 41.8015 0.549175C41.4499 0.900806 41.2524 1.37772 41.2524 1.875C41.2524 2.37228 41.4499 2.84919 41.8015 3.20082C42.1532 3.55246 42.6301 3.75 43.1274 3.75H49.8511L31.8774 21.7238L21.9549 11.7975C21.7807 11.6229 21.5738 11.4844 21.346 11.3898C21.1182 11.2953 20.874 11.2466 20.6274 11.2466C20.3807 11.2466 20.1365 11.2953 19.9087 11.3898C19.6809 11.4844 19.474 11.6229 19.2999 11.7975L0.549868 30.5475C0.197793 30.8996 -1.17311e-08 31.3771 0 31.875C1.17311e-08 32.3729 0.197793 32.8504 0.549868 33.2025C0.901943 33.5546 1.37946 33.7524 1.87737 33.7524C2.37528 33.7524 2.85279 33.5546 3.20487 33.2025L20.6274 15.7762L30.5499 25.7025C30.724 25.8771 30.9309 26.0156 31.1587 26.1102C31.3865 26.2047 31.6307 26.2534 31.8774 26.2534C32.124 26.2534 32.3682 26.2047 32.596 26.1102C32.8238 26.0156 33.0307 25.8771 33.2049 25.7025L52.5024 6.40125V13.125C52.5024 13.6223 52.6999 14.0992 53.0515 14.4508C53.4032 14.8025 53.8801 15 54.3774 15C54.8746 15 55.3516 14.8025 55.7032 14.4508C56.0548 14.0992 56.2524 13.6223 56.2524 13.125V1.875C56.2524 1.37772 56.0548 0.900806 55.7032 0.549175C55.3516 0.197544 54.8746 0 54.3774 0H43.1274ZM46.8774 26.25C46.3801 26.25 45.9032 26.4475 45.5515 26.7992C45.1999 27.1508 45.0024 27.6277 45.0024 28.125V58.125C45.0024 58.6223 45.1999 59.0992 45.5515 59.4508C45.9032 59.8025 46.3801 60 46.8774 60C47.3746 60 47.8516 59.8025 48.2032 59.4508C48.5548 59.0992 48.7524 58.6223 48.7524 58.125V28.125C48.7524 27.6277 48.5548 27.1508 48.2032 26.7992C47.8516 26.4475 47.3746 26.25 46.8774 26.25ZM16.8774 33.75C16.3801 33.75 15.9032 33.9475 15.5515 34.2992C15.1999 34.6508 15.0024 35.1277 15.0024 35.625V58.125C15.0024 58.6223 15.1999 59.0992 15.5515 59.4508C15.9032 59.8025 16.3801 60 16.8774 60C17.3746 60 17.8516 59.8025 18.2032 59.4508C18.5548 59.0992 18.7524 58.6223 18.7524 58.125V35.625C18.7524 35.1277 18.5548 34.6508 18.2032 34.2992C17.8516 33.9475 17.3746 33.75 16.8774 33.75ZM30.0024 43.125C30.0024 42.6277 30.1999 42.1508 30.5515 41.7992C30.9032 41.4475 31.3801 41.25 31.8774 41.25C32.3746 41.25 32.8516 41.4475 33.2032 41.7992C33.5548 42.1508 33.7524 42.6277 33.7524 43.125V58.125C33.7524 58.6223 33.5548 59.0992 33.2032 59.4508C32.8516 59.8025 32.3746 60 31.8774 60C31.3801 60 30.9032 59.8025 30.5515 59.4508C30.1999 59.0992 30.0024 58.6223 30.0024 58.125V43.125ZM0.00236839 46.875C0.00236839 46.3777 0.199913 45.9008 0.551543 45.5492C0.903174 45.1975 1.38009 45 1.87737 45C2.37465 45 2.85156 45.1975 3.20319 45.5492C3.55482 45.9008 3.75237 46.3777 3.75237 46.875V58.125C3.75237 58.6223 3.55482 59.0992 3.20319 59.4508C2.85156 59.8025 2.37465 60 1.87737 60C1.38009 60 0.903174 59.8025 0.551543 59.4508C0.199913 59.0992 0.00236839 58.6223 0.00236839 58.125V46.875Z" fill="#E4B819"/>
</svg>
