<svg width="30" height="21" viewBox="0 0 30 21" fill="none" xmlns="http://www.w3.org/2000/svg">
<path d="M19.95 14.7C19.6715 14.7 19.4045 14.8106 19.2075 15.0075C19.0106 15.2045 18.9 15.4715 18.9 15.75C18.9 16.0285 19.0106 16.2956 19.2075 16.4925C19.4045 16.6894 19.6715 16.8 19.95 16.8H24.15C24.4285 16.8 24.6956 16.6894 24.8925 16.4925C25.0894 16.2956 25.2 16.0285 25.2 15.75C25.2 15.4715 25.0894 15.2045 24.8925 15.0075C24.6956 14.8106 24.4285 14.7 24.15 14.7H19.95ZM0 5.25C0 3.85762 0.553124 2.52226 1.53769 1.53769C2.52226 0.553124 3.85762 0 5.25 0H24.15C25.5424 0 26.8778 0.553124 27.8623 1.53769C28.8469 2.52226 29.4 3.85762 29.4 5.25V15.75C29.4 17.1424 28.8469 18.4778 27.8623 19.4623C26.8778 20.4469 25.5424 21 24.15 21H5.25C3.85762 21 2.52226 20.4469 1.53769 19.4623C0.553124 18.4778 0 17.1424 0 15.75V5.25ZM27.3 6.3V5.25C27.3 4.41457 26.9681 3.61336 26.3774 3.02262C25.7867 2.43188 24.9854 2.1 24.15 2.1H5.25C4.41457 2.1 3.61336 2.43188 3.02262 3.02262C2.43188 3.61336 2.1 4.41457 2.1 5.25V6.3H27.3ZM2.1 8.40001V15.75C2.1 16.5854 2.43188 17.3867 3.02262 17.9774C3.61336 18.5681 4.41457 18.9 5.25 18.9H24.15C24.9854 18.9 25.7867 18.5681 26.3774 17.9774C26.9681 17.3867 27.3 16.5854 27.3 15.75V8.40001H2.1Z" fill="#FAD75D"/>
</svg>
